<svg xmlns="http://www.w3.org/2000/svg" viewBox="0 0 1600 900" role="img" aria-labelledby="title desc">
  <title id="title">Founder and team story</title>
  <desc id="desc">A hand-drawn Xiaohei character opens drawers revealing founder story, team history, and product proof.</desc>
  <rect width="1600" height="900" fill="#ffffff"/>
  <g fill="none" stroke="#171717" stroke-width="7" stroke-linecap="round" stroke-linejoin="round">
    <path d="M188 200h1180c32 0 58 26 58 58v470c0 32-26 58-58 58H188c-32 0-58-26-58-58V258c0-32 26-58 58-58z"/>
    <path d="M214 309h1050M214 442h1050M214 575h1050"/>
    <path d="M374 200v586M768 200v586M1148 200v586"/>
    <path d="M274 264h178M652 264h180M1028 264h174"/>
    <path d="M256 356h218M640 490h182M1010 626h190"/>
    <path d="M244 395h122M640 529h236M1010 666h126"/>
    <path d="M908 357c94-23 180-23 270 2"/>
    <path d="M908 400c92 25 183 25 270 1"/>
    <path d="M514 608c48-37 96-37 144-2"/>
  </g>
  <g fill="#c8dfaa" opacity=".9">
    <rect x="238" y="226" width="194" height="62" rx="20"/>
    <rect x="620" y="360" width="220" height="62" rx="20"/>
    <rect x="994" y="494" width="212" height="62" rx="20"/>
  </g>
  <g font-family="sans-serif" font-weight="800" fill="#171717">
    <text x="100" y="128" font-size="62">founder story</text>
    <text x="268" y="268" font-size="30">origin</text>
    <text x="652" y="402" font-size="30">team arc</text>
    <text x="1026" y="536" font-size="30">proof trail</text>
    <text x="245" y="846" font-size="34">not just a deck</text>
    <text x="1005" y="846" font-size="34">the story behind the team</text>
  </g>
  <g fill="#171717">
    <path d="M1370 430c-28-22-42-53-35-91 8-43 42-69 84-65 41 4 70 36 71 78 2 42-23 72-60 84-18 6-41 4-60-6z"/>
    <circle cx="1383" cy="352" r="9" fill="#fff"/>
    <circle cx="1434" cy="352" r="9" fill="#fff"/>
    <path d="M1370 437c-25 28-38 66-40 114M1430 438c29 29 43 68 46 114" fill="none" stroke="#171717" stroke-width="7" stroke-linecap="round"/>
    <path d="M1338 474c-37 13-64 30-83 50M1456 478c38 15 67 34 88 59" fill="none" stroke="#171717" stroke-width="7" stroke-linecap="round"/>
  </g>
  <g fill="none" stroke="#f5a184" stroke-width="6" stroke-linecap="round" stroke-linejoin="round">
    <path d="M1286 518c-70 11-118 15-176 8"/>
    <path d="M1120 506l-28 20 30 18"/>
  </g>
  <g fill="#97cde5" opacity=".85">
    <circle cx="524" cy="386" r="24"/>
    <circle cx="572" cy="386" r="24"/>
    <circle cx="548" cy="345" r="24"/>
  </g>
</svg>
