<svg xmlns="http://www.w3.org/2000/svg" viewBox="0 0 1600 900" role="img" aria-labelledby="title desc">
  <title id="title">Conviction to outreach</title>
  <desc id="desc">A simple hand-drawn scene where Xiaohei stamps a conviction memo and sends it toward outreach.</desc>
  <rect width="1600" height="900" fill="#ffffff"/>
  <g fill="none" stroke="#171717" stroke-width="7" stroke-linecap="round" stroke-linejoin="round">
    <path d="M220 170h640c34 0 62 28 62 62v496c0 34-28 62-62 62H220c-34 0-62-28-62-62V232c0-34 28-62 62-62z"/>
    <path d="M246 280h270M246 342h196M246 404h250"/>
    <path d="M246 534h530M246 596h420"/>
    <path d="M1060 288h286c30 0 54 24 54 54v216c0 30-24 54-54 54h-286c-30 0-54-24-54-54V342c0-30 24-54 54-54z"/>
    <path d="M1048 342l150 118 174-118"/>
    <path d="M902 458c70-30 128-29 194 3"/>
    <path d="M1196 614c-18 68-65 111-140 130"/>
    <path d="M1160 722l-36 34M1160 722l-42-13"/>
  </g>
  <g fill="#c8dfaa" opacity=".9">
    <rect x="244" y="216" width="240" height="56" rx="20"/>
    <rect x="366" y="650" width="256" height="62" rx="22"/>
  </g>
  <g fill="#97cde5" opacity=".88">
    <rect x="1058" y="638" width="222" height="58" rx="20"/>
  </g>
  <g font-family="sans-serif" font-weight="800" fill="#171717">
    <text x="98" y="120" font-size="62">conviction packet</text>
    <text x="276" y="254" font-size="30">why now</text>
    <text x="404" y="690" font-size="31">verified fit</text>
    <text x="1090" y="676" font-size="31">outreach</text>
    <text x="1005" y="804" font-size="34">reach out with context</text>
  </g>
  <g fill="#171717">
    <path d="M748 474c-30-18-45-48-41-85 6-45 37-73 81-73 45 0 79 31 84 75 5 45-22 80-64 92-18 5-40 1-60-9z"/>
    <circle cx="762" cy="392" r="9" fill="#fff"/>
    <circle cx="816" cy="392" r="9" fill="#fff"/>
    <path d="M746 482c-24 32-35 70-31 116M810 483c31 28 46 65 49 111" fill="none" stroke="#171717" stroke-width="7" stroke-linecap="round"/>
    <path d="M726 538c-50 16-88 40-115 72M850 526c45 9 83 27 116 56" fill="none" stroke="#171717" stroke-width="7" stroke-linecap="round"/>
  </g>
  <g fill="none" stroke="#f5a184" stroke-width="8" stroke-linecap="round" stroke-linejoin="round">
    <path d="M792 624c76 4 142-11 196-46"/>
    <path d="M990 578l-20 34M990 578l-38-5"/>
    <circle cx="492" cy="681" r="86"/>
    <path d="M444 680l36 38 67-78"/>
  </g>
  <g fill="none" stroke="#6a8f34" stroke-width="6" stroke-linecap="round" stroke-dasharray="10 18">
    <path d="M942 398c47-21 88-19 127 4"/>
  </g>
</svg>
