<svg xmlns="http://www.w3.org/2000/svg" width="1200" height="675" viewBox="0 0 1200 675">
  <defs>
    <filter id="postShadow" x="-20%" y="-20%" width="140%" height="150%">
      <feDropShadow dx="0" dy="24" stdDeviation="32" flood-color="#111111" flood-opacity="0.2"/>
    </filter>
  </defs>
  <rect width="1200" height="675" fill="#fbfaf7"/>
  <path d="M0 536 C175 458 335 560 520 455 C662 374 768 350 920 412 C1034 459 1110 523 1200 494 L1200 675 L0 675 Z" fill="#dcefc7" opacity="0.7"/>
  <g transform="translate(70 62)">
    <g transform="scale(0.13)">
      <path d="M128.005 191.173 C128.448 156.208 156.93 128 192 128 L192 64 L128 64 C128 99.346 99.346 128 64 128 L64 192 L128 192 Z M192 256 L64 256 C28.654 256 0 227.346 0 192 L0 64 L64 64 L64 0 L192 0 C227.346 0 256 28.654 256 64 L256 192 L192 192 Z" fill="#111111"/>
    </g>
    <text x="46" y="27" font-family="Georgia, 'Times New Roman', serif" font-size="26" font-weight="700" fill="#111111">Apparent</text>
  </g>
  <g transform="translate(70 150)">
    <text x="0" y="72" font-family="Georgia, 'Times New Roman', serif" font-size="78" fill="#111111">Put your proof</text>
    <text x="0" y="158" font-family="Georgia, 'Times New Roman', serif" font-size="78" fill="#42520d">where capital</text>
    <text x="0" y="244" font-family="Georgia, 'Times New Roman', serif" font-size="78" fill="#111111">can find it.</text>
    <text x="2" y="305" font-family="Inter, Arial, sans-serif" font-size="25" fill="#111111" fill-opacity="0.62">Founder profiles built around shipped work:</text>
    <text x="2" y="340" font-family="Inter, Arial, sans-serif" font-size="25" font-weight="800" fill="#111111" fill-opacity="0.76">commits, traction, demos, launches, and fit.</text>
  </g>

  <g transform="translate(664 88)" filter="url(#postShadow)">
    <rect width="448" height="504" rx="34" fill="#1c1c1a"/>
    <g transform="translate(28 25)">
      <rect width="124" height="26" rx="13" fill="#dcefc7"/>
      <text x="62" y="17" text-anchor="middle" font-family="Inter, Arial, sans-serif" font-size="11" font-weight="800" fill="#42520d">Founder profile</text>
      <rect x="136" width="122" height="26" rx="13" fill="#42520d"/>
      <text x="197" y="17" text-anchor="middle" font-family="Inter, Arial, sans-serif" font-size="11" font-weight="800" fill="#ffffff">Raising Seed</text>
    </g>
    <g transform="translate(28 74)">
      <circle cx="28" cy="28" r="28" fill="#d6a29a"/>
      <text x="70" y="25" font-family="Inter, Arial, sans-serif" font-size="21" font-weight="800" fill="#ffffff">Aria Kim</text>
      <text x="70" y="48" font-family="Inter, Arial, sans-serif" font-size="13" fill="#ffffff" fill-opacity="0.48">@ariakim</text>
      <text x="240" y="22" font-family="Inter, Arial, sans-serif" font-size="10" font-weight="800" letter-spacing="1.4" fill="#ffffff" fill-opacity="0.36">MRR</text>
      <text x="240" y="49" font-family="Inter, Arial, sans-serif" font-size="24" font-weight="800" fill="#bcd99a">$24K</text>
      <text x="308" y="49" font-family="Inter, Arial, sans-serif" font-size="13" font-weight="800" fill="#58d39a">+22%</text>
    </g>
    <text x="28" y="160" font-family="Inter, Arial, sans-serif" font-size="14" fill="#ffffff" fill-opacity="0.72">Open-source agents teams ship to production.</text>
    <g transform="translate(28 194)">
      <text x="0" y="0" font-family="Inter, Arial, sans-serif" font-size="9" font-weight="800" letter-spacing="1.4" fill="#ffffff" fill-opacity="0.36">BUILD ACTIVITY</text>
      <rect y="16" width="392" height="76" rx="10" fill="#ffffff" fill-opacity="0.04"/>
      <g transform="translate(12 28)">
        <rect x="0" y="0" width="8" height="8" rx="2" fill="#37a04a"/><rect x="18" y="0" width="8" height="8" rx="2" fill="#58d39a"/><rect x="54" y="0" width="8" height="8" rx="2" fill="#2e6b2e"/><rect x="90" y="0" width="8" height="8" rx="2" fill="#37a04a"/><rect x="126" y="0" width="8" height="8" rx="2" fill="#58d39a"/><rect x="180" y="0" width="8" height="8" rx="2" fill="#2e6b2e"/><rect x="216" y="0" width="8" height="8" rx="2" fill="#37a04a"/><rect x="270" y="0" width="8" height="8" rx="2" fill="#58d39a"/><rect x="324" y="0" width="8" height="8" rx="2" fill="#2e6b2e"/><rect x="360" y="0" width="8" height="8" rx="2" fill="#37a04a"/>
        <rect x="18" y="16" width="8" height="8" rx="2" fill="#2e6b2e"/><rect x="36" y="16" width="8" height="8" rx="2" fill="#37a04a"/><rect x="72" y="16" width="8" height="8" rx="2" fill="#58d39a"/><rect x="108" y="16" width="8" height="8" rx="2" fill="#2e6b2e"/><rect x="144" y="16" width="8" height="8" rx="2" fill="#37a04a"/><rect x="198" y="16" width="8" height="8" rx="2" fill="#58d39a"/><rect x="252" y="16" width="8" height="8" rx="2" fill="#2e6b2e"/><rect x="288" y="16" width="8" height="8" rx="2" fill="#37a04a"/><rect x="342" y="16" width="8" height="8" rx="2" fill="#58d39a"/>
        <rect x="0" y="32" width="8" height="8" rx="2" fill="#58d39a"/><rect x="36" y="32" width="8" height="8" rx="2" fill="#2e6b2e"/><rect x="72" y="32" width="8" height="8" rx="2" fill="#37a04a"/><rect x="108" y="32" width="8" height="8" rx="2" fill="#58d39a"/><rect x="162" y="32" width="8" height="8" rx="2" fill="#2e6b2e"/><rect x="216" y="32" width="8" height="8" rx="2" fill="#37a04a"/><rect x="270" y="32" width="8" height="8" rx="2" fill="#58d39a"/><rect x="324" y="32" width="8" height="8" rx="2" fill="#2e6b2e"/><rect x="360" y="32" width="8" height="8" rx="2" fill="#37a04a"/>
      </g>
    </g>
    <g transform="translate(28 316)">
      <line x1="0" y1="0" x2="392" y2="0" stroke="#ffffff" stroke-opacity="0.08"/>
      <text x="0" y="29" font-family="Inter, Arial, sans-serif" font-size="9" font-weight="800" letter-spacing="1.4" fill="#ffffff" fill-opacity="0.34">CURRENT BUILD</text>
      <text x="0" y="51" font-family="Inter, Arial, sans-serif" font-size="14" font-weight="700" fill="#ffffff">AgentKit v2</text>
      <text x="196" y="29" font-family="Inter, Arial, sans-serif" font-size="9" font-weight="800" letter-spacing="1.4" fill="#ffffff" fill-opacity="0.34">TRACTION</text>
      <text x="196" y="51" font-family="Inter, Arial, sans-serif" font-size="14" font-weight="700" fill="#ffffff">4.2K GitHub stars</text>
      <rect x="0" y="84" width="184" height="70" rx="14" fill="#42520d"/>
      <circle cx="92" cy="119" r="16" fill="#ffffff" fill-opacity="0.9"/>
      <path d="M88 111 L102 119 L88 127 Z" fill="#1c1c1a"/>
      <rect x="208" y="84" width="184" height="70" rx="14" fill="#ffffff" fill-opacity="0.07" stroke="#ffffff" stroke-opacity="0.12"/>
      <rect x="224" y="103" width="96" height="4" rx="2" fill="#ffffff" fill-opacity="0.32"/>
      <rect x="224" y="120" width="136" height="4" rx="2" fill="#ffffff" fill-opacity="0.13"/>
      <text x="224" y="141" font-family="Inter, Arial, sans-serif" font-size="10" fill="#ffffff" fill-opacity="0.48">Pitch deck</text>
    </g>
  </g>
</svg>
